<svg id="vector" xmlns="http://www.w3.org/2000/svg" width="24" height="24" viewBox="0 0 96 96"><path fill="#000000" d="M30,13.5c-13.4,6.4 -15.5,7.7 -15.5,9.7 0,1.9 0.5,2.3 2.8,2.3l2.7,-0.1 0,14.9 0,14.8 -3,2.6 -3.1,2.5 0.3,12.7 0.3,12.6 13.5,-0 13.5,-0 0.5,-8.5 0.5,-8.5 5.5,-0 5.5,-0 0.5,8.5 0.5,8.5 13.5,-0 13.5,-0 0.3,-12.6 0.3,-12.7 -3.1,-2.5 -3,-2.6 0,-14.8 0,-14.9 2.8,0.1c2.2,-0 2.7,-0.4 2.7,-2.4 0,-2.1 -1.9,-3.2 -16.9,-9.7 -9.3,-4.1 -17.4,-7.4 -18,-7.3 -0.6,-0 -8.1,3.4 -16.6,7.4zM37.5,28c0,3.3 -0.2,3.5 -3.5,3.5 -2.9,-0 -3.6,-0.4 -3.8,-2.3 -0.6,-4 0.5,-5.4 4,-5 3,0.3 3.3,0.6 3.3,3.8zM51.5,28c0,3.3 -0.2,3.5 -3.5,3.5 -2.9,-0 -3.6,-0.4 -3.8,-2.3 -0.6,-4 0.5,-5.4 4,-5 3,0.3 3.3,0.6 3.3,3.8zM65.5,28c0,3.3 -0.2,3.5 -3.5,3.5 -2.9,-0 -3.6,-0.4 -3.8,-2.3 -0.6,-4 0.5,-5.4 4,-5 3,0.3 3.3,0.6 3.3,3.8zM37.5,42c0,3.3 -0.2,3.5 -3.5,3.5 -2.9,-0 -3.6,-0.4 -3.8,-2.3 -0.6,-4 0.5,-5.4 4,-5 3,0.3 3.3,0.6 3.3,3.8zM51.5,42c0,3.3 -0.2,3.5 -3.5,3.5 -2.9,-0 -3.6,-0.4 -3.8,-2.3 -0.6,-4 0.5,-5.4 4,-5 3,0.3 3.3,0.6 3.3,3.8zM65.5,42c0,3.3 -0.2,3.5 -3.5,3.5 -2.9,-0 -3.6,-0.4 -3.8,-2.3 -0.6,-4 0.5,-5.4 4,-5 3,0.3 3.3,0.6 3.3,3.8zM37.5,56c0,3.3 -0.2,3.5 -3.5,3.5 -2.9,-0 -3.6,-0.4 -3.8,-2.3 -0.6,-4 0.5,-5.4 4,-5 3,0.3 3.3,0.6 3.3,3.8zM51.5,56c0,3.3 -0.2,3.5 -3.5,3.5 -2.9,-0 -3.6,-0.4 -3.8,-2.3 -0.6,-4 0.5,-5.4 4,-5 3,0.3 3.3,0.6 3.3,3.8zM65.5,56c0,3.3 -0.2,3.5 -3.5,3.5 -2.9,-0 -3.6,-0.4 -3.8,-2.3 -0.6,-4 0.5,-5.4 4,-5 3,0.3 3.3,0.6 3.3,3.8zM31.5,72c0,3.3 -0.2,3.5 -3.5,3.5 -2.9,-0 -3.6,-0.4 -3.8,-2.3 -0.6,-4 0.5,-5.4 4,-5 3,0.3 3.3,0.6 3.3,3.8zM71.5,72c0,3.3 -0.2,3.5 -3.5,3.5 -2.9,-0 -3.6,-0.4 -3.8,-2.3 -0.6,-4 0.5,-5.4 4,-5 3,0.3 3.3,0.6 3.3,3.8z" stroke="#00000000" id="path_0"/></svg>