<svg id="vector" xmlns="http://www.w3.org/2000/svg" width="24" height="24" viewBox="0 0 90 90"><path fill="#000000" d="M32.1,13.9c-2,2 -2.1,3.1 -2.1,33.1l0,31 10.6,-0 10.6,-0 -0.6,-3.3c-0.3,-1.7 -2.2,-15.4 -4.1,-30.2 -3.9,-28.8 -4.8,-31.7 -9.8,-32.3 -1.6,-0.2 -3.4,0.5 -4.6,1.7z" stroke="#00000000" id="path_0"/><path fill="#000000" d="M6.7,24.7c-2.6,2.5 3.2,8.3 8.4,8.3 4,-0 9.1,-3.7 8.7,-6.3 -0.4,-2.7 -3.9,-3.5 -5.8,-1.2 -1.6,1.9 -4.4,1.9 -6,-0 -1.3,-1.6 -4.2,-2 -5.3,-0.8z" stroke="#00000000" id="path_1"/><path fill="#000000" d="M6.7,39.7c-2.6,2.5 3.2,8.3 8.4,8.3 4,-0 9.1,-3.7 8.7,-6.3 -0.4,-2.7 -3.9,-3.5 -5.8,-1.2 -1.6,1.9 -4.4,1.9 -6,-0 -1.3,-1.6 -4.2,-2 -5.3,-0.8z" stroke="#00000000" id="path_2"/><path fill="#000000" d="M6.7,54.7c-2.6,2.5 3.2,8.3 8.3,8.3 3.8,-0 9.2,-3.9 8.8,-6.4 -0.4,-2.6 -4,-3.3 -5.8,-1.1 -1.6,1.9 -4.4,1.9 -6,-0 -1.3,-1.6 -4.2,-2 -5.3,-0.8z" stroke="#00000000" id="path_3"/><path fill="#000000" d="M54.7,54.7c-3.1,3 4.1,9 9.6,7.9 1.8,-0.4 3.9,-0.7 4.7,-0.7 0.8,-0 2.9,0.3 4.7,0.7 4.3,0.8 10.6,-2.8 10.1,-6 -0.4,-2.6 -4,-3.3 -5.8,-1.1 -1.6,1.9 -4.4,1.9 -6,-0 -0.7,-0.8 -2,-1.5 -3,-1.5 -1,-0 -2.3,0.7 -3,1.5 -0.7,0.8 -2,1.5 -3,1.5 -1,-0 -2.3,-0.7 -3,-1.5 -1.3,-1.6 -4.2,-2 -5.3,-0.8z" stroke="#00000000" id="path_4"/><path fill="#000000" d="M6.7,69.7c-2.6,2.5 3.2,8.3 8.3,8.3 3.8,-0 9.2,-3.9 8.8,-6.4 -0.4,-2.6 -4,-3.3 -5.8,-1.1 -1.6,1.9 -4.4,1.9 -6,-0 -1.3,-1.6 -4.2,-2 -5.3,-0.8z" stroke="#00000000" id="path_5"/><path fill="#000000" d="M54.7,69.7c-3.1,3 4.1,9 9.6,7.9 1.8,-0.4 3.9,-0.7 4.7,-0.7 0.8,-0 2.9,0.3 4.7,0.7 4.3,0.8 10.6,-2.8 10.1,-6 -0.4,-2.6 -4,-3.3 -5.8,-1.1 -1.6,1.9 -4.4,1.9 -6,-0 -0.7,-0.8 -2,-1.5 -3,-1.5 -1,-0 -2.3,0.7 -3,1.5 -0.7,0.8 -2,1.5 -3,1.5 -1,-0 -2.3,-0.7 -3,-1.5 -1.3,-1.6 -4.2,-2 -5.3,-0.8z" stroke="#00000000" id="path_6"/></svg>