<svg id="vector" xmlns="http://www.w3.org/2000/svg" width="24" height="24" viewBox="0 0 96 96"><path fill="#000000" d="M45.4,14c-1.1,0.4 -2.8,1.9 -3.7,3.3 -1.4,2.2 -2.2,2.4 -5.5,2 -4.8,-0.6 -5.9,0.6 -13.7,15.7 -5.2,10.3 -5.8,11 -9.5,12 -4.1,1.1 -5.6,3.5 -4.5,7 1.4,4.5 9.8,3.7 16.4,-1.5 2.4,-1.9 4.9,-3.5 5.6,-3.5 0.7,-0 3.4,1.7 6.1,3.7 4.5,3.5 5.4,3.8 11.4,3.8 6,-0 6.9,-0.3 11.4,-3.8 2.7,-2 5.4,-3.7 6.1,-3.7 0.7,-0 3.2,1.6 5.6,3.5 6.6,5.2 15,6 16.4,1.5 1.1,-3.5 -0.4,-5.9 -4.5,-7 -3.7,-1 -4.2,-1.7 -10.2,-13.2 -7,-13.4 -9.3,-15.8 -13.9,-14.1 -2.6,1 -3,0.9 -4.6,-1.7 -1.3,-2.2 -5.4,-5.3 -6.6,-4.9 -0.1,-0 -1.1,0.4 -2.3,0.9zM49.9,32.5c2.2,3.8 5.9,4.7 8.1,2 0.7,-0.8 1.6,-1.5 2,-1.5 0.7,-0 3.3,5.1 2.8,5.4 -0.2,0.1 -1.9,0.9 -3.8,1.9 -1.9,1 -5,2.9 -6.9,4.2 -1.9,1.4 -3.7,2.5 -4.1,2.5 -0.4,-0 -2.2,-1.1 -4.1,-2.5 -1.9,-1.3 -5,-3.2 -6.9,-4.2 -1.9,-1 -3.6,-1.8 -3.8,-1.9 -0.2,-0.1 0.4,-1.6 1.3,-3.3 1.4,-2.9 1.9,-3.1 5.3,-2.5 3,0.5 4.1,0.2 5.6,-1.5 1.1,-1.2 2,-2.1 2.2,-2.1 0.1,-0 1.1,1.6 2.3,3.5z" stroke="#00000000" id="path_0"/><path fill="#000000" d="M27.3,57.3c-1.5,1.3 -3.5,2.8 -4.4,3.3 -1.4,0.8 -1,2.1 3.6,10.4 6.3,11.4 7.4,12 17,9.6 6.3,-1.6 7,-1.6 11.2,-0 6.9,2.7 8.6,1.5 14.8,-9.6l5.2,-9.5 -2.2,-1.5c-1.2,-0.8 -3.4,-2.4 -4.9,-3.4 -2.6,-1.8 -2.7,-1.8 -4.9,0.1 -6.5,6 -16.7,7.5 -24.3,3.6 -2.2,-1.2 -4.6,-2.9 -5.3,-3.7 -1.8,-2.1 -2.4,-2 -5.8,0.7z" stroke="#00000000" id="path_1"/></svg>