<svg id="vector" xmlns="http://www.w3.org/2000/svg" width="24" height="21.333334" viewBox="0 0 576 512"><path fill="#000000FF" d="M320,33.8L320,160L48.5,160C100.2,82.8 188.1,32 288,32c10.8,0 21.5,0.6 32,1.8zM352,160L352,39.1C424.9,55.7 487.2,99.8 527.5,160L352,160zM29.9,192L96,192L96,320L0,320c0,-46 10.8,-89.4 29.9,-128zM192,320L128,320L128,192L448,192L448,320L384,320v32L576,352v80c0,26.5 -21.5,48 -48,48L352,480L352,352c0,-35.3 -28.7,-64 -64,-64s-64,28.7 -64,64L224,480L48,480c-26.5,0 -48,-21.5 -48,-48L0,352L192,352L192,320zM480,320L480,192h66.1c19.2,38.6 29.9,82 29.9,128L480,320z" id="path_0"/></svg>