<svg id="vector" xmlns="http://www.w3.org/2000/svg" width="108" height="108" viewBox="0 0 108 108"><g transform="translation(0, 12.805)" id="g_0"><g transform="translation(0, 19.98)"><path fill="#00000000" d="M16.214,11.9414L5.888,22.2674c-0.1721,0.1721 -0.1773,0.4438 -0.0119,0.6093l16.4031,16.4031c0.1654,0.1654 0.4372,0.1602 0.6093,-0.0119l16.3794,-16.3794c0.1721,-0.1721 0.1773,-0.4438 0.0119,-0.6093l-10.3379,-10.3379" stroke-width="1" stroke="#000000"/><path fill="#00000000" d="M16.214,8.7664 L5.888,19.0924c-0.1721,0.1721 -0.1773,0.4438 -0.0119,0.6093L22.2793,36.1048c0.1654,0.1654 0.4372,0.1602 0.6093,-0.0119L39.2679,19.7135c0.1721,-0.1721 0.1773,-0.4438 0.0119,-0.6093L28.9419,8.7664" stroke-width="1" stroke="#000000"/><path fill="#00000000" d="M16.214,5.5914 L5.888,15.9174c-0.1721,0.1721 -0.1773,0.4438 -0.0119,0.6093l16.4031,16.4031c0.1654,0.1654 0.4372,0.1602 0.6093,-0.0119L39.2679,16.5385c0.1721,-0.1721 0.1773,-0.4438 0.0119,-0.6093L28.9419,5.5914" stroke-width="1" stroke="#000000"/></g></g></svg>