<svg id="vector" xmlns="http://www.w3.org/2000/svg" width="24" height="24" viewBox="0 0 96 96"><path fill="#000000" d="M39.6,18.5l-7.7,9.5 16.1,-0 16.1,-0 -7.7,-9.5c-4.2,-5.2 -8,-9.5 -8.4,-9.5 -0.4,-0 -4.2,4.3 -8.4,9.5z" stroke="#00000000" id="path_0"/><path fill="#000000" d="M11.7,28.5l-3.7,7.5 8,-0 8,-0 -3.7,-7.5c-2.1,-4.1 -4,-7.5 -4.3,-7.5 -0.3,-0 -2.2,3.4 -4.3,7.5z" stroke="#00000000" id="path_1"/><path fill="#000000" d="M75.7,28.5l-3.7,7.5 8,-0 8,-0 -3.7,-7.5c-2.1,-4.1 -4,-7.5 -4.3,-7.5 -0.3,-0 -2.2,3.4 -4.3,7.5z" stroke="#00000000" id="path_2"/><path fill="#000000" d="M32,42l0,10 -4,-0 -4,-0 0,-6 0,-6 -8,-0 -8,-0 0,24 0,24 9.9,-0 9.8,-0 0.7,-4.1c1.4,-8.7 8.4,-18.2 16.5,-22.4 2.8,-1.4 3.4,-1.4 6.2,-0 8.1,4.2 15.1,13.7 16.5,22.4l0.7,4.1 9.8,-0 9.9,-0 0,-24 0,-24 -8,-0 -8,-0 0,6 0,6 -4,-0 -4,-0 0,-10 0,-10 -16,-0 -16,-0 0,10zM53.5,38.5c2.1,2 2.5,3.4 2.5,8l0,5.5 -8,-0 -8,-0 0,-5.5c0,-6.7 2.9,-10.5 8,-10.5 1.9,-0 4,0.9 5.5,2.5z" stroke="#00000000" id="path_3"/></svg>