<svg id="vector" xmlns="http://www.w3.org/2000/svg" width="24" height="24" viewBox="0 0 96 96"><path fill="#000000" d="M36.8,8.8l-10.8,4.6 0,4.3 0,4.3 -8.5,-0 -8.5,-0 0,4.5 0,4.5 21.5,-0 21.5,-0 0,21.5 0,21.5 -4,-0 -4,-0 0,-17c0,-9.4 -0.2,-17 -0.5,-17 -0.3,-0 -2.4,0.9 -4.5,2l-4,2 0,15 0,15 -4.5,-0 -4.5,-0 0,-8.5 0,-8.5 -4.5,-0 -4.5,-0 0,8.5 0,8.5 -4,-0 -4,-0 0,4.5 0,4.5 -4.5,-0 -4.5,-0 0,4.5 0,4.5 48,-0 48,-0 0,-4.5 0,-4.5 -4.5,-0 -4.5,-0 0,-4.5 0,-4.5 -4,-0 -4,-0 0,-21.5 0,-21.5 4.1,-0 4,-0 -0.3,-4.7 -0.3,-4.6 -19,-8.8c-10.4,-4.8 -19.2,-8.8 -19.5,-8.8 -0.3,-0 -5.3,2.1 -11.2,4.7zM70,52.5l0,21.5 -4.5,-0 -4.5,-0 0,-21.5 0,-21.5 4.5,-0 4.5,-0 0,21.5z" stroke="#00000000" id="path_0"/></svg>