<svg id="vector" xmlns="http://www.w3.org/2000/svg" width="24" height="24" viewBox="0 0 96 96"><path fill="#000000" d="M50.5,14.5c-1.6,1.5 -2.5,3.6 -2.5,5.5 0,1.9 0.9,4 2.5,5.5 4.9,5 13.5,1.5 13.5,-5.5 0,-4.1 -3.9,-8 -8,-8 -1.9,-0 -4,0.9 -5.5,2.5z" stroke="#00000000" id="path_0"/><path fill="#000000" d="M35.4,29.9c-6.5,4 -13.4,14.3 -14.9,22.4 -0.7,3.6 -0.8,3.7 -5.4,3.7 -2.6,-0 -5.2,0.5 -5.9,1.2 -3.5,3.5 1.9,17.1 9,23.3l4.2,3.5 16.1,-0 16.1,-0 7.4,-16.7c4.1,-9.3 7.5,-16.9 7.6,-17.1 0.1,-0.2 1.1,0.1 2.2,0.7 1.6,0.9 2.1,0.5 3.6,-2.6 0.9,-1.9 1.6,-3.7 1.4,-3.8 -2.2,-2 -33.5,-16.5 -35.5,-16.5 -1.6,-0 -4.2,0.8 -5.9,1.9zM56,43c3.3,1.7 6,3.4 6,3.8 0,0.4 -0.8,2.6 -1.7,4.9l-1.8,4.3 -8.7,-0c-9.8,-0 -10.2,-0.4 -7.2,-6.3 1.8,-3.4 6.4,-9.7 7,-9.7 0.3,-0 3.1,1.4 6.4,3z" stroke="#00000000" id="path_1"/><path fill="#000000" d="M75.6,56.9c-1.2,1.9 -11.6,25.5 -11.6,26.3 0,0.4 2.2,0.8 4.8,0.8 4.1,-0 5.5,-0.5 9,-3.5 7.1,-6.2 12.5,-19.8 9,-23.3 -1.4,-1.4 -10.4,-1.6 -11.2,-0.3z" stroke="#00000000" id="path_2"/></svg>