<svg id="vector" xmlns="http://www.w3.org/2000/svg" width="24" height="24" viewBox="0 0 96 96"><path fill="#000000" d="M38.7,6.7c-0.4,0.3 -0.7,2.3 -0.7,4.3 0,4 3.8,10.7 8.7,15.3l3,2.8 2.8,-4.1c1.6,-2.3 4,-5 5.3,-6.1l2.5,-1.9 -2.4,-2.7c-4.1,-4.5 -11,-8.3 -14.9,-8.3 -2,-0 -4,0.3 -4.3,0.7z" stroke="#00000000" id="path_0"/><path fill="#000000" d="M75,17.9c-6.9,2.1 -16,10 -19.5,16.9 -1.9,3.9 -2.3,8.8 -0.7,10.4 3.3,3.3 12.8,-0.8 19.9,-8.5 7.3,-7.9 9.7,-15.5 5.8,-18.3 -2.1,-1.5 -2,-1.5 -5.5,-0.5z" stroke="#00000000" id="path_1"/><path fill="#000000" d="M8.2,26.1c-5.3,2 -2.1,11.8 6.5,20 6.1,5.9 10.4,8.1 15.1,7.7 3.5,-0.3 3.7,-0.5 4,-4 0.4,-4.7 -1.8,-9 -7.7,-15.1 -6.6,-6.9 -13.5,-10.2 -17.9,-8.6z" stroke="#00000000" id="path_2"/><path fill="#000000" d="M62.7,54.7c-1.7,1.6 -0.5,8.1 2.1,12.4 5.7,8.9 14.8,15.2 21,14.7 3.5,-0.3 3.7,-0.5 4,-4 0.5,-6.2 -5.8,-15.3 -14.7,-21 -4.3,-2.6 -10.8,-3.8 -12.4,-2.1z" stroke="#00000000" id="path_3"/><path fill="#000000" d="M38.5,63.6c-4.4,2.4 -12.4,10.4 -14.6,14.7 -1.2,2.3 -1.9,5.3 -1.7,7.5 0.3,3.5 0.5,3.7 4,4 4.5,0.4 8.6,-1.6 14.5,-7.1 6.2,-5.7 9.5,-11.6 9.1,-16.4 -0.3,-3.7 -0.4,-3.8 -4.3,-4 -2.2,-0.2 -5.3,0.4 -7,1.3z" stroke="#00000000" id="path_4"/></svg>