<svg id="vector" xmlns="http://www.w3.org/2000/svg" width="24" height="24" viewBox="0 0 96 96"><path fill="#000000" d="M29.2,17.3c-0.6,0.7 -1.2,5.1 -1.4,9.7 -0.3,8.2 -0.4,8.5 -2.8,8.8 -3.8,0.6 -5,2.1 -5,6.4 0,5.3 1.9,8.6 8.4,14.6 5.5,5 16.4,11.2 19.6,11.2 3.2,-0 14.1,-6.2 19.6,-11.2 6.5,-6 8.4,-9.3 8.4,-14.6 0,-4.3 -1.2,-5.8 -5,-6.4 -2.4,-0.3 -2.5,-0.6 -2.8,-8.8 -0.2,-4.6 -0.8,-9 -1.4,-9.7 -0.8,-1 -5.5,-1.3 -18.8,-1.3 -13.3,-0 -18,0.3 -18.8,1.3zM60,29l0,5 -4.2,-0.7c-5.4,-1 -10.2,-1 -15.5,-0l-4.3,0.7 0,-5 0,-5 12,-0 12,-0 0,5z" stroke="#00000000" id="path_0"/><path fill="#000000" d="M4,56.8c0,18 0.3,25.1 1.2,26 1.7,1.7 83.9,1.7 85.6,-0 0.9,-0.9 1.2,-8 1.2,-26l0,-24.8 -4,-0 -4,-0 0,19.6 0,19.6 -5.2,-4.5 -5.3,-4.5 -3.2,2.7 -3.2,2.6 5.1,4.3 5,4.2 -29.2,-0 -29.2,-0 5,-4.2 5.1,-4.3 -3.2,-2.6 -3.2,-2.7 -5.2,4.5 -5.3,4.5 0,-19.6 0,-19.6 -4,-0 -4,-0 0,24.8z" stroke="#00000000" id="path_1"/></svg>