<svg id="vector" xmlns="http://www.w3.org/2000/svg" width="24" height="24" viewBox="0 0 96 96"><path fill="#000000" d="M14.5,10.5l-2.5,2.4 0,31.1 0,31.1 2.5,2.4c1.3,1.4 3,2.5 3.8,2.5 0.9,-0 1.7,1.5 2.1,3.9 0.8,5.2 4.8,9.8 9.7,11.2 7.9,2.4 16.2,-2.9 17.5,-11.2l0.7,-3.9 15.4,-0c15,-0 15.5,-0.1 17.8,-2.5l2.5,-2.4 0,-31.1 0,-31.1 -2.5,-2.4c-2.4,-2.5 -2.6,-2.5 -21.5,-2.5 -18.9,-0 -19.1,-0 -21.5,2.5l-2.5,2.4 -2.5,-2.4c-2.1,-2.2 -3.3,-2.5 -9.5,-2.5 -6.2,-0 -7.4,0.3 -9.5,2.5zM28,44l0,28 -4,-0 -4,-0 0,-28 0,-28 4,-0 4,-0 0,28zM72,28l0,4 -12,-0 -12,-0 0,-4 0,-4 12,-0 12,-0 0,4zM56,44l0,4 -4,-0 -4,-0 0,-4 0,-4 4,-0 4,-0 0,4zM72,44l0,4 -4,-0 -4,-0 0,-4 0,-4 4,-0 4,-0 0,4zM56,60l0,4 -4,-0 -4,-0 0,-4 0,-4 4,-0 4,-0 0,4zM72,60l0,4 -4,-0 -4,-0 0,-4 0,-4 4,-0 4,-0 0,4zM38.1,77.2c2.4,3 2.4,6.3 -0.1,8.8 -2.5,2.5 -5.5,2.5 -8,-0 -2.8,-2.8 -2.6,-5.6 0.5,-6.4 1.4,-0.4 3.1,-1.5 3.7,-2.6 1.6,-2.5 1.6,-2.5 3.9,0.2z" stroke="#00000000" id="path_0"/></svg>