<svg id="vector" width="24" height="24" viewBox="0 0 512 512"><path fill="#000000" d="M229,59.1c-4.7,0.5 -14.3,2 -21.5,3.4 -48,9.4 -88.5,29.9 -125.3,63.5 -10.6,9.7 -24.7,25.1 -24.7,27 0,0.6 13.3,10.9 29.5,22.9l29.5,21.9 11,-10.9c30,-29.8 67.5,-48.4 106.5,-52.7l6.5,-0.7 0.3,-37.8c0.2,-35.5 0.1,-37.7 -1.5,-37.6 -1,0.1 -5.6,0.6 -10.3,1z" stroke="#00000000" id="path_0"/><path fill="#000000" d="M271.2,95.7l0.3,37.8 3.5,0.3c7.9,0.6 26.2,4.6 36.5,7.9 28.1,9 50.7,23.1 73,45.2l11,11 29.5,-21.9c16.2,-12 29.6,-22.2 29.7,-22.7 0.2,-0.5 -3.9,-5.6 -9,-11.4 -36.5,-40.6 -86.6,-68.9 -140.3,-79.3 -7.1,-1.3 -16,-2.7 -19.9,-3.1 -3.8,-0.3 -8.7,-0.8 -10.8,-1.1l-3.7,-0.6 0.2,37.9z" stroke="#00000000" id="path_1"/><path fill="#000000" d="M224.9,166c-29.1,6.3 -56,21.2 -77.3,42.8l-6.8,7 17.7,13.1c9.7,7.3 18.5,13.7 19.5,14.3 1.6,1 2.8,0.3 8.8,-5.3 12.4,-11.7 29.8,-20.9 46.5,-24.6l7.7,-1.6 0,-23.9 0,-23.8 -3.7,0.1c-2.1,-0 -7.7,0.9 -12.4,1.9z" stroke="#00000000" id="path_2"/><path fill="#000000" d="M271,187.8l0,23.9 7.8,1.6c16.6,3.7 34,12.9 46.4,24.6 6,5.6 7.2,6.3 8.8,5.3 1,-0.6 9.8,-7 19.5,-14.3l17.7,-13.1 -7.3,-7.5c-21,-21.3 -50.7,-37.4 -78.9,-42.7 -4.5,-0.9 -9.5,-1.6 -11.1,-1.6l-2.9,-0 0,23.8z" stroke="#00000000" id="path_3"/><path fill="#000000" d="M36.6,181.8c-12.5,19.9 -24.4,49.2 -30,74.5 -5.8,25.5 -5.9,27.4 -6.3,95.4l-0.4,63.3 50.5,-0 50.6,-0 0,-31 0,-31 -13,-0 -13,-0 0,-24.8c0,-13.6 0.5,-28.8 1,-33.7 2.5,-21 8.3,-41.1 17.6,-60.4 4.6,-9.4 5.3,-11.6 4.2,-12.6 -1.4,-1.3 -55.4,-41.5 -57.5,-42.8 -0.8,-0.5 -2.1,0.6 -3.7,3.1z" stroke="#00000000" id="path_4"/><path fill="#000000" d="M443.5,199.5c-15.9,11.8 -29.3,21.9 -29.8,22.4 -0.6,0.6 1.2,5.2 4.6,12.3 14.3,29.3 18.7,51.4 18.7,93.9l0,24.9 -13,-0 -13,-0 0,31 0,31 50.6,-0 50.5,-0 -0.4,-63.3c-0.3,-52.2 -0.7,-65 -2,-73.5 -4,-25.1 -10.7,-48.1 -19.8,-68.7 -4.8,-10.7 -15.2,-30 -16.7,-30.9 -0.5,-0.3 -13.8,9.2 -29.7,20.9z" stroke="#00000000" id="path_5"/><path fill="#000000" d="M118.7,251.2c-9,20.7 -12.5,35.5 -13.4,58l-0.6,13.8 24,-0 24,-0 0.6,-12.3c0.7,-12.8 3.8,-27.5 7.7,-36.4 2,-4.6 2,-4.9 0.3,-6 -1,-0.7 -9.7,-7.1 -19.3,-14.3 -9.6,-7.1 -17.8,-13 -18.1,-13 -0.4,-0 -2.7,4.6 -5.2,10.2z" stroke="#00000000" id="path_6"/><path fill="#000000" d="M238,243.1c-20.8,5.3 -37.8,19.3 -47.1,38.4 -5.1,10.6 -6.9,17.8 -7.6,30.7l-0.6,10.8 73.3,-0 73.3,-0 -0.6,-10.8c-0.8,-13.2 -2.6,-20.4 -7.6,-30.7 -9.8,-19.8 -28,-34.3 -48.8,-38.9 -9.9,-2.2 -24.9,-2 -34.3,0.5z" stroke="#00000000" id="path_7"/><path fill="#000000" d="M370,254.1c-9.6,7.2 -18.3,13.6 -19.3,14.3 -1.6,1.2 -1.6,1.5 0.4,6 3.8,8.8 6.9,23.5 7.6,36.3l0.6,12.3 24,-0 24,-0 -0.6,-13.8c-0.7,-15.7 -2.5,-27.4 -6.3,-39.4 -2.9,-9.3 -11.3,-28.8 -12.3,-28.8 -0.3,-0 -8.5,5.9 -18.1,13.1z" stroke="#00000000" id="path_8"/><path fill="#000000" d="M131,403.5l0,50.5 125,-0 125,-0 0,-50.5 0,-50.5 -125,-0 -125,-0 0,50.5z" stroke="#00000000" id="path_9"/></svg>