<svg id="vector" width="24" height="24" viewBox="0 0 512 512"><path fill="#000000" d="M7.8,29.1c-4.3,2.2 -7.8,8.1 -7.8,12.9 0,4.8 3.3,10.3 7.8,12.8 3.9,2.2 4.3,2.2 47.1,2.2l43.1,-0 0,9.5 0,9.4 -38.7,0.3 -38.8,0.3 -5.3,3c-5.9,3.2 -9.1,6.6 -12.5,12.9l-2.2,4.1 0,183 0,183 2.3,4.2c3.3,6.3 7.4,10.6 13.4,13.9l5.3,2.9 20.5,-0 20.5,-0 5.3,-2.9c6,-3.3 10.1,-7.6 13.4,-13.9l2.3,-4.2 0.5,-66 0.5,-66 2.7,-5.1c6.9,-13.1 21.3,-18.7 35.5,-14 6.4,2.1 13.6,8.7 16.6,15.4 2.2,4.6 2.2,5.5 2.7,70.7 0.5,65.6 0.5,66 2.7,70.1 1.2,2.3 4.5,6.2 7.4,8.8 7.7,6.9 11.9,7.8 34.7,7.4 18,-0.3 18.9,-0.4 23.8,-3 2.7,-1.4 6.7,-4.5 8.8,-6.8 7.5,-8.3 7,-4.1 7.6,-77l0.5,-65.5 2.8,-5.7c5.1,-10.5 14,-16 25.9,-16 11.8,-0 21.1,6.1 26.2,17.1 2,4.5 2.1,6.2 2.6,70.1 0.6,72.9 0.1,68.7 7.6,77 2.1,2.3 6.1,5.4 8.8,6.8 4.9,2.6 5.9,2.7 23.1,3 11.2,0.3 20,-0 23.2,-0.8 6.6,-1.4 13.6,-6.1 17.3,-11.5 5.9,-8.6 6,-9.8 6,-78l0,-62 2.4,-5c8.7,-18.3 32.4,-22.5 46.4,-8.2 8.1,8.3 7.6,4.1 8.2,77.7 0.5,59.9 0.7,65.8 2.3,69.4 2.9,6.6 8.3,12.3 14.5,15.3 5.5,2.7 6.3,2.8 23.7,3.1 16.6,0.3 18.5,0.2 24,-1.9 7.8,-2.9 14.5,-9.5 17.4,-17.3l2.1,-5.7 -0.2,-181.2 -0.3,-181.2 -3,-5.3c-3.2,-5.9 -6.6,-9.1 -12.9,-12.5 -4,-2.1 -5.1,-2.2 -42.8,-2.5l-38.8,-0.3 0,-9.4 0,-9.5 43,-0c41.2,-0 43.3,-0.1 47,-2 4.5,-2.3 8,-8 8,-13 0,-5 -3.5,-10.7 -8,-13 -3.9,-2 -5.3,-2 -248.2,-2 -241.3,0.1 -244.3,0.1 -248,2.1zM241,66.5l0,9.5 -56.5,-0 -56.5,-0 0,-9.5 0,-9.5 56.5,-0 56.5,-0 0,9.5zM384,66.5l0,9.5 -56.5,-0 -56.5,-0 0,-9.5 0,-9.5 56.5,-0 56.5,-0 0,9.5zM482,247.5l0,141.5 -12,-0 -12,-0 0,-29.3c0,-32.8 -0.4,-36.1 -6.7,-48.6 -7,-13.9 -20.8,-25 -36.8,-29.6 -7.9,-2.3 -22.1,-2.3 -30,-0 -16,4.6 -30.1,15.9 -36.9,29.6 -6.2,12.7 -6.6,15 -6.6,48.1l0,29.8 -12.9,-0 -12.9,-0 -0.4,-30.8c-0.4,-28.1 -0.6,-31.2 -2.6,-37.2 -6.6,-19.8 -23.5,-35.5 -43.2,-40.1 -3,-0.7 -8.9,-1.2 -13,-1.2 -9.5,-0 -16.6,1.6 -26,6.1 -10.3,4.8 -21.2,15.7 -26.4,26.2 -5.8,11.9 -6.6,17.7 -6.6,49.2l0,27.8 -12.4,-0 -12.4,-0 -0.4,-30.3c-0.4,-28 -0.6,-30.7 -2.7,-37.2 -3,-9.1 -7,-16.2 -13.1,-22.9 -27.9,-30.4 -77.5,-23.2 -95.5,13.9 -2.4,4.9 -4.9,11.7 -5.4,14.9 -0.6,3.3 -1.1,18.5 -1.1,33.8l0,27.8 -12,-0 -12,-0 0,-141.5 0,-141.5 226,-0 226,-0 0,141.5zM54,436.5l0,17.5 -12,-0 -12,-0 0,-17.5 0,-17.5 12,-0 12,-0 0,17.5zM197,436.5l0,17.5 -12.5,-0 -12.5,-0 0,-17.5 0,-17.5 12.5,-0 12.5,-0 0,17.5zM341,436.5l0,17.5 -13,-0 -13,-0 0,-17.5 0,-17.5 13,-0 13,-0 0,17.5zM482,436.5l0,17.5 -12,-0 -12,-0 0,-17.5 0,-17.5 12,-0 12,-0 0,17.5z" stroke="#00000000" id="path_0"/><path fill="#000000" d="M98.8,131.5c-20.9,5.3 -38.4,23 -43.3,43.7 -2.2,9.4 -2.1,52.6 0.1,59.2 2.4,6.9 10.2,15 17,17.5 5.1,2 7.6,2.1 40.8,2.1l35.3,-0 6.1,-3.1c7,-3.4 10.5,-7.1 13.9,-14.6 2.4,-5.2 2.4,-5.5 2.1,-33 -0.3,-25.9 -0.5,-28.2 -2.5,-33.7 -6.5,-17.3 -20,-30.8 -36.6,-36.6 -8,-2.9 -24.6,-3.6 -32.9,-1.5zM122.3,161.6c6.1,2.1 12.9,8.2 16.1,14.6 2.6,5.1 2.6,5.6 2.6,26.5l0,21.3 -28.6,-0 -28.5,-0 0.3,-21.8c0.3,-20.1 0.5,-22 2.5,-25.8 3.6,-6.7 7,-10.1 13.5,-13.3 7.1,-3.6 14.5,-4.1 22.1,-1.5z" stroke="#00000000" id="path_1"/><path fill="#000000" d="M241.6,131.6c-15.1,3.7 -31,16.3 -37.9,30.1 -6,12.2 -6.9,18.4 -6.5,46.4 0.3,24.3 0.3,24.4 3,29.5 1.5,2.8 4.8,7 7.3,9.2 8.1,7.1 9.4,7.3 50.1,7l35.9,-0.3 4.9,-2.5c6.2,-3.2 12,-9.8 14.3,-16.3 1.6,-4.5 1.8,-8.7 1.8,-30.2 0,-21.3 -0.3,-25.9 -1.9,-31 -6.4,-21.2 -22.3,-36.7 -43.1,-42 -7.3,-1.8 -20,-1.8 -27.9,0.1zM266.2,162c6.5,2.4 12.8,8.6 16,15.5 2,4.6 2.3,6.8 2.6,25.7l0.4,20.8 -29.1,-0 -29.1,-0 0,-19.3c0,-14.2 0.4,-20.7 1.5,-24.4 4.8,-16 21.8,-24.3 37.7,-18.3z" stroke="#00000000" id="path_2"/><path fill="#000000" d="M382.8,132.4c-19.5,5.8 -35.2,21.8 -40.2,41.2 -1.3,4.9 -1.6,11.7 -1.6,32.1l0,26 3.1,6.1c3.4,7 7.1,10.5 14.6,13.9l5.2,2.4 36.8,-0.3 36.8,-0.3 4.7,-2.7c6.4,-3.9 12.5,-11.1 14.3,-17.1 1.8,-6.1 2.1,-46.9 0.4,-56.3 -3.8,-21.3 -22.5,-40.8 -44,-45.9 -9.3,-2.2 -20.9,-1.8 -30.1,0.9zM411.8,163.1c6.5,3.2 9.9,6.6 13.5,13.3 2,3.8 2.2,5.7 2.5,25.8l0.3,21.8 -28.5,-0 -28.6,-0 0,-21.3c0,-20.1 0.1,-21.5 2.4,-26.2 2.7,-6 10,-12.8 15.9,-14.9 7.3,-2.6 15.5,-2 22.5,1.5z" stroke="#00000000" id="path_3"/></svg>