<svg id="vector" width="24" height="24" viewBox="0 0 96 96"><path fill="#000000" d="M69.6,14.1c-2,1.6 -2.6,2.9 -2.6,5.9 0,7 7.2,10.3 12.6,5.7 2,-1.7 2.7,-3.3 2.7,-5.7 0,-2.4 -0.7,-4 -2.7,-5.7 -3.4,-2.8 -6.5,-2.9 -10,-0.2z" stroke="#00000000" id="path_0"/><path fill="#000000" d="M29.6,18.1c-2,1.6 -2.6,2.9 -2.6,5.9 0,7 7.2,10.3 12.6,5.7 3.7,-3.3 3.7,-8.1 0,-11.4 -3.4,-2.8 -6.5,-2.9 -10,-0.2z" stroke="#00000000" id="path_1"/><path fill="#000000" d="M60.3,35.7c-2.8,2.1 -7.2,6.6 -9.9,10 -3.9,4.9 -5.2,6 -6.5,5.2 -1.3,-0.7 -1.8,-0.3 -2.3,1.5 -0.3,1.3 -0.9,3.1 -1.2,3.9 -0.4,1.1 0.7,2.2 3.6,3.7 2.3,1.2 4.6,1.8 5,1.3 0.4,-0.4 2.8,-3.7 5.3,-7.3 4.9,-7.1 9.4,-11.7 10.3,-10.8 0.3,0.4 0.1,1.5 -0.5,2.6 -0.6,1.2 -1.1,4.1 -1.1,6.7 0,3.8 0.8,5.7 4.2,10.8 2.3,3.4 5.9,10.2 7.9,15.2l3.8,9 4,0.3 4.1,0.3 -1.8,-4.8c-1.1,-2.6 -3.6,-9.2 -5.7,-14.7l-3.8,-9.8 2.2,-10.4c2.5,-11.4 2.1,-13.7 -2.5,-15.4 -5.2,-2 -9.7,-1.2 -15.1,2.7z" stroke="#00000000" id="path_2"/><path fill="#000000" d="M20.3,39.7c-2.9,2.1 -7.1,6.2 -9.4,9.2l-4.3,5.3 2.5,1.9c1.3,1 2.8,1.9 3.2,1.9 0.5,-0 3.3,-2.6 6.3,-5.7 5.2,-5.5 7.7,-6.6 5.5,-2.5 -0.6,1.2 -1.1,4.1 -1.1,6.6 0,3.8 0.9,5.9 5.4,12.8 2.9,4.6 6.5,10.7 8,13.5 2.5,5.1 2.8,5.3 6.6,5.3l4,-0 -3.8,-7.8c-2.2,-4.2 -4.7,-10 -5.7,-12.8 -1.7,-4.9 -1.7,-5.3 0.4,-15.1 2.5,-11.2 2.1,-13.6 -2.5,-15.3 -5.2,-2 -9.7,-1.2 -15.1,2.7z" stroke="#00000000" id="path_3"/><path fill="#000000" d="M81.6,48.4c-0.3,1.3 -0.9,3.1 -1.2,3.9 -0.4,1.1 0.7,2.2 3.6,3.7 2.3,1.2 4.3,2 4.5,1.8 0.1,-0.2 1,-1.8 1.9,-3.5l1.6,-3.3 -4.9,-2.4 -4.9,-2.5 -0.6,2.3z" stroke="#00000000" id="path_4"/><path fill="#000000" d="M62.2,68.6c-0.5,1.6 -2.4,6.6 -4.1,11.2l-3.1,8.3 4.1,-0.3c4.1,-0.3 4.1,-0.4 6.6,-6.8 2.5,-6.9 2.4,-9 -0.6,-12.9l-1.8,-2.4 -1.1,2.9z" stroke="#00000000" id="path_5"/><path fill="#000000" d="M22.7,71.1c-0.3,0.8 -2.1,4.9 -4.1,9.2l-3.5,7.7 3.9,-0c3.8,-0 4.1,-0.3 6.5,-5.1 2.7,-5.3 2.7,-6.9 -0.4,-10.8 -1.3,-1.7 -1.9,-2 -2.4,-1z" stroke="#00000000" id="path_6"/></svg>