<svg id="vector" width="24" height="24" viewBox="0 0 96 96"><path fill="#000000" d="M45,11.2c-1.2,1.8 -3.2,7.2 -4.7,12l-2.6,8.8 -2.4,-3.4c-2.8,-4.3 -5.8,-5.4 -8.3,-3.1 -4.3,3.9 -10.3,22.3 -15.9,48.7l-2.9,13.8 11.7,-0 11.7,-0 1.2,-5.8c2.1,-10.1 8.8,-18.2 15.2,-18.2 6.4,-0 13.1,8.1 15.2,18.2l1.2,5.8 11.9,-0 11.9,-0 -0.7,-3.2c-5,-24.8 -10.2,-43 -13.4,-46.9 -2.5,-3.1 -4.3,-1.6 -7.3,6.2 -1.3,3.2 -2.5,5.9 -2.8,5.9 -0.3,-0 -1.8,-5.3 -3.3,-11.7 -4.1,-16.9 -9.8,-30.3 -12.8,-30.3 -0.5,-0 -1.8,1.5 -2.9,3.2z" stroke="#00000000" id="path_0"/></svg>