<svg id="vector" width="24" height="24" viewBox="0 0 6.35 6.35"><path fill="#00000000" d="M1.49059,1.862L4.86932,1.862A0.42234,0.43932 0,0 1,5.29167 2.30132L5.29167,4.0586A0.42234,0.43932 0,0 1,4.86932 4.49792L1.49059,4.49792A0.42234,0.43932 0,0 1,1.06825 4.0586L1.06825,2.30132A0.42234,0.43932 0,0 1,1.49059 1.862z" stroke-width="0.396875" stroke="#000000" id="path_0"/><path fill="#00000000" d="M5.2865,6.35V5.73092c0,-0.24338 -0.18822,-0.43925 -0.4222,-0.43925H1.4857c-0.23398,0 -0.4222,0.19587 -0.4222,0.43925v0.61908" stroke-width="0.396875" stroke="#000000" id="path_1"/><path fill="#00000000" d="m1.0635,0v0.61908c0,0.24338 0.18822,0.43925 0.4222,0.43925h3.37861c0.23398,0 0.4222,-0.19587 0.4222,-0.43925V0" stroke-width="0.396875" stroke="#000000" id="path_2"/></svg>