<svg id="vector" width="24" height="24" viewBox="0 0 96 96"><path fill="#000000" d="M70.5,14c-2.4,1.2 -5.1,3.7 -6.8,6.4 -4.3,6.9 -6.8,7.6 -25.9,7.6 -17.5,-0 -23.5,1 -28.3,4.9 -1.5,1.1 -4.2,2.3 -6.1,2.7 -3.2,0.6 -3.4,0.9 -3.4,4.5 0,3.1 0.4,3.9 1.8,3.9 4.1,-0 9.7,-2.4 13.6,-5.9 2.2,-2 4.9,-4.3 5.9,-5 1.6,-1.3 1.6,-1.2 0.2,1.5 -0.9,1.8 -1.5,5.7 -1.5,10.1 0,7.1 -0.1,7.2 -3.6,9.9 -3.1,2.4 -11.4,16.3 -11.4,19.2 0,0.5 1.5,1.5 3.3,2.4l3.4,1.6 3.7,-7.6c2.8,-5.7 5,-8.6 8.2,-11 2.4,-1.8 4.4,-3 4.4,-2.7 0,0.3 -1.2,2.3 -2.6,4.5 -1.5,2.2 -2.5,4.2 -2.3,4.4 0.2,0.1 4.4,3.3 9.4,7l9,6.7 2.2,-2.8c1.3,-1.5 2.3,-3.1 2.3,-3.4 0,-0.3 -2.7,-2.5 -6,-4.9 -3.3,-2.4 -6,-4.7 -6,-5.2 0,-0.4 1.5,-3.1 3.3,-5.8l3.2,-5 9.3,-0c5,-0 9.2,0.3 9.2,0.6 0,1.7 -2.8,5.5 -7.8,10.7l-5.6,5.7 2.7,2.7 2.7,2.7 6.1,-5.9c3.4,-3.3 7,-7.9 8.1,-10.3l1.9,-4.3 4.7,3.9c3.4,2.9 5.8,6.2 8.6,12l3.9,8 3.4,-1.6c1.8,-0.9 3.3,-1.9 3.3,-2.4 0,-3.1 -8.6,-17 -13.4,-21.8l-5.6,-5.4 0,-6.3c0,-3.5 0.6,-7.9 1.4,-9.8 1.6,-3.8 2.3,-3.8 11,-0.1 3.8,1.6 4.1,1.6 6,-0.4l2,-2 -6.2,-6.3c-3.4,-3.4 -6.2,-7 -6.2,-8 0,-2.4 -4.4,-2.2 -9.5,0.3z" stroke="#00000000" id="path_0"/></svg>