<svg id="vector" width="24" height="24" viewBox="0 0 96 96"><path fill="#000000" d="M45.2,9.2c-0.5,0.7 -1.1,2.2 -1.4,3.3 -0.4,2.6 -11.5,8.3 -17.8,9.1 -2.8,0.4 -5,1 -5,1.4 0,0.5 1.9,1.8 4.3,2.9 3.9,1.9 6.1,2.1 22.7,2.1 16.6,-0 18.8,-0.2 22.7,-2.1 4.8,-2.3 5.5,-3.9 1.8,-3.9 -6.4,-0 -20.5,-6.9 -20.5,-10.1 0,-3.4 -4.7,-5.2 -6.8,-2.7z" stroke="#00000000" id="path_0"/><path fill="#000000" d="M31.8,35.2c-0.3,3.2 -0.5,3.3 -8,5.2 -4.3,1 -7.5,2.3 -7.2,2.7 0.3,0.5 2.3,1.8 4.4,2.9 3.6,1.8 5.9,2 27,2 21.1,-0 23.4,-0.2 27,-2 5.1,-2.6 5.7,-3.8 2.3,-4.5 -12.1,-2.5 -12.8,-2.8 -13.1,-6.3 -0.3,-3 -0.6,-3.2 -4.3,-3.2 -3.2,-0 -3.9,0.3 -3.9,2 0,1.8 -0.7,2 -8,2 -7.3,-0 -8,-0.2 -8,-2 0,-1.7 -0.7,-2 -3.9,-2 -3.7,-0 -4,0.2 -4.3,3.2z" stroke="#00000000" id="path_1"/><path fill="#000000" d="M24,55.5c0,3.3 -0.2,3.5 -5.2,4.9 -2.9,0.8 -6.6,1.6 -8.3,1.8l-3,0.3 3.5,2.5 3.5,2.5 33.5,-0 33.5,-0 3.5,-2.5 3.5,-2.5 -3,-0.3c-1.6,-0.2 -5.4,-1 -8.2,-1.8 -5.1,-1.4 -5.3,-1.6 -5.3,-4.9 0,-3.4 -0.1,-3.5 -4,-3.5 -3.3,-0 -4,0.3 -4,2 0,1.9 -0.7,2 -16,2 -15.3,-0 -16,-0.1 -16,-2 0,-1.7 -0.7,-2 -4,-2 -3.9,-0 -4,0.1 -4,3.5z" stroke="#00000000" id="path_2"/><path fill="#000000" d="M16,80l0,8 32,-0 32,-0 0,-8 0,-8 -4,-0 -4,-0 0,4 0,4 -8,-0 -8,-0 0,-4 0,-4 -8,-0 -8,-0 0,4 0,4 -8,-0 -8,-0 0,-4 0,-4 -4,-0 -4,-0 0,8z" stroke="#00000000" id="path_3"/></svg>