<svg id="vector" width="24" height="24" viewBox="0 0 96 96"><path fill="#000000" d="M24,14l0,6 -8,-0 -8,-0 0,4 0,4 40,-0 40,-0 0,-4 0,-4 -8,-0 -8,-0 0,-6 0,-6 -4,-0 -4,-0 0,6 0,6 -16,-0 -16,-0 0,-6 0,-6 -4,-0 -4,-0 0,6z" stroke="#00000000" id="path_0"/><path fill="#000000" d="M10.5,38.5c-2.5,2.4 -2.5,2.6 -2.5,21.5 0,18.9 0,19.1 2.5,21.5 2,2.1 3.4,2.5 8,2.5 4.8,-0 5.5,0.2 5.5,2 0,1.7 0.7,2 4,2 3.3,-0 4,-0.3 4,-2 0,-1.7 0.7,-2 4,-2 4.5,-0 8,-2.7 8,-6 0,-1.1 -0.9,-2.9 -2,-4 -2,-2 -2,-2 0,-4 1.1,-1.1 2,-2.9 2,-4 0,-1.1 -0.9,-2.9 -2,-4l-2,-2 2,-2c1.1,-1.1 2,-2.9 2,-4 0,-1.1 -0.9,-2.9 -2,-4 -2,-2 -2,-2 0,-4 1.1,-1.1 2,-2.9 2,-4 0,-1.1 -0.9,-2.9 -2,-4 -1.8,-1.8 -3.3,-2 -15.5,-2 -13.1,-0 -13.7,0.1 -16,2.5z" stroke="#00000000" id="path_1"/><path fill="#000000" d="M54,38c-1.1,1.1 -2,2.9 -2,4 0,1.1 0.9,2.9 2,4l2,2 -2,2c-1.1,1.1 -2,2.9 -2,4 0,1.1 0.9,2.9 2,4l2,2 -2,2c-1.1,1.1 -2,2.9 -2,4 0,1.1 0.9,2.9 2,4 2,2 2,2 0,4 -4.3,4.3 -0.9,10 6,10 3.3,-0 4,0.3 4,2 0,1.7 0.7,2 4,2 3.3,-0 4,-0.3 4,-2 0,-1.8 0.7,-2 5.5,-2 4.6,-0 6,-0.4 8,-2.5 2.5,-2.4 2.5,-2.6 2.5,-21.5 0,-18.9 0,-19.1 -2.5,-21.5 -2.3,-2.4 -2.9,-2.5 -16,-2.5 -12.2,-0 -13.7,0.2 -15.5,2z" stroke="#00000000" id="path_2"/></svg>