<svg id="vector" width="24" height="24" viewBox="0 0 96 96"><path fill="#000000" d="M42,10.4c0,1.9 -0.8,2.6 -4.5,3.6 -5.3,1.5 -9.5,5 -9.5,8 0,3.4 4.4,6.8 11,8.7l6.1,1.7 -0.3,4c-0.3,3.7 -0.6,4.1 -4,4.9 -11.6,2.7 -11.4,14.2 0.3,16.6 3,0.6 3.4,1.1 3.7,4.1 0.3,3.3 0,3.7 -4,5.5 -3.4,1.6 -4.3,2.5 -4.3,4.5 0,2 0.8,2.7 4.5,4.1 5.3,2 7,5.6 3.6,7.6 -2.1,1.2 -2.1,1.2 0.2,1.3 1.2,-0 2.2,0.4 2.2,1 0,0.5 0.5,1 1,1 0.6,-0 1,-0.6 1,-1.3 0,-0.6 1.5,-1.9 3.3,-2.7 4,-1.9 4.3,-5 0.5,-6.8 -1.6,-0.7 -2.8,-1.7 -2.8,-2.3 0,-0.5 -1.4,-0.8 -3.1,-0.7 -6,0.5 -4.1,-1.9 3,-4.1 7.8,-2.4 10.8,-5.3 9.7,-9.4 -0.5,-2.3 -4.2,-4.7 -7.3,-4.7 -1.2,-0 -1.4,-0.7 -1,-3.5 0.5,-3 0.3,-3.5 -1.4,-3.5 -2.9,-0 -5.9,1.8 -5.9,3.5 0,1.7 -0.9,1.9 -3,0.5 -3,-1.9 0.4,-4.3 9.5,-6.7 9,-2.4 13.5,-5.2 13.5,-8.3 0,-2.9 -3.9,-6.9 -8,-8.1 -3.3,-1 -3.9,-1.6 -4.2,-4.3 -0.3,-2.7 -0.7,-3.1 -3.6,-3.4 -2.7,-0.3 -3.5,0.1 -3.9,1.7 -0.6,2.4 -0.9,2.5 -5.2,1 -7.5,-2.6 -1.5,-5.3 11.3,-5.2 10.3,0.2 13.6,-0.6 13.6,-3.3 0,-1.6 -5.6,-4.4 -9,-4.4 -1.1,-0 -1.9,-0.6 -1.7,-1.2 0.1,-0.9 -1.6,-1.3 -5.5,-1.5 -5.5,-0.2 -5.8,-0.1 -5.8,2.1zM55.1,35.6c1,1.3 1,1.7 -0.2,2.5 -2.3,1.4 -2.9,1.1 -2.9,-1.6 0,-2.9 1.2,-3.2 3.1,-0.9zM53.2,61.5c0,0.5 -0.5,1.1 -1.1,1.3 -0.6,0.2 -1.1,-0.4 -1.1,-1.3 0,-0.9 0.5,-1.5 1.1,-1.3 0.6,0.2 1.1,0.8 1.1,1.3zM51.8,80.2c-0.2,0.6 -1,1.4 -1.6,1.6 -0.7,0.2 -1,-0.2 -0.6,-1.2 0.7,-1.8 2.8,-2.2 2.2,-0.4z" stroke="#00000000" id="path_0"/></svg>