<svg id="vector" width="24" height="24" viewBox="0 0 96 96"><path fill="#000000" d="M33.1,9.4c-8.7,4.8 -5,18.6 4.9,18.6 5.1,-0 10,-4.9 10,-9.9 0,-7.5 -8.3,-12.4 -14.9,-8.7z" stroke="#00000000" id="path_0"/><path fill="#000000" d="M29.5,33.2c-5.1,1.8 -9.5,5.7 -9.5,8.4l0,2.4 18,-0 18,-0 0,-2.4c0,-2.8 -4.5,-6.7 -9.9,-8.5 -4.1,-1.4 -12.5,-1.3 -16.6,0.1z" stroke="#00000000" id="path_1"/><path fill="#000000" d="M68.4,33.1c-1,1.7 1.3,3.6 2.7,2.2 1.2,-1.2 0.4,-3.3 -1.1,-3.3 -0.5,-0 -1.2,0.5 -1.6,1.1z" stroke="#00000000" id="path_2"/><path fill="#000000" d="M66,40c-3.2,3.2 -2.4,4 4,4 3.3,-0 6,-0.4 6,-1 0,-1.7 -3.9,-5 -6,-5 -1.1,-0 -2.9,0.9 -4,2z" stroke="#00000000" id="path_3"/><path fill="#000000" d="M8,52l0,4 40,-0 40,-0 0,-4 0,-4 -40,-0 -40,-0 0,4z" stroke="#00000000" id="path_4"/><path fill="#000000" d="M12,74l0,14 36,-0 36,-0 0,-14 0,-14 -36,-0 -36,-0 0,14z" stroke="#00000000" id="path_5"/></svg>